<svg width="800" height="400" viewBox="0 0 800 400" fill="none" xmlns="http://www.w3.org/2000/svg">
  <defs>
    <linearGradient id="gAS" x1="0%" y1="0%" x2="100%" y2="100%">
      <stop offset="0%" style="stop-color:#f43f5e;stop-opacity:1" />
      <stop offset="100%" style="stop-color:#9f1239;stop-opacity:1" />
    </linearGradient>
  </defs>
  <rect width="800" height="400" fill="url(#gAS)"/>
  <rect x="110" y="240" width="34" height="80" rx="6" fill="#ffffff" fill-opacity="0.50"/>
  <rect x="164" y="180" width="34" height="140" rx="6" fill="#ffffff" fill-opacity="0.59"/>
  <rect x="218" y="215" width="34" height="105" rx="6" fill="#ffffff" fill-opacity="0.68"/>
  <rect x="272" y="140" width="34" height="180" rx="6" fill="#ffffff" fill-opacity="0.77"/>
  <rect x="326" y="190" width="34" height="130" rx="6" fill="#ffffff" fill-opacity="0.86"/>
  <line x1="500" y1="130" x2="620" y2="95" stroke="#ffffff" stroke-opacity="0.5" stroke-width="4"/>
  <line x1="500" y1="130" x2="600" y2="240" stroke="#ffffff" stroke-opacity="0.5" stroke-width="4"/>
  <line x1="620" y1="95" x2="710" y2="180" stroke="#ffffff" stroke-opacity="0.5" stroke-width="4"/>
  <line x1="600" y1="240" x2="710" y2="180" stroke="#ffffff" stroke-opacity="0.5" stroke-width="4"/>
  <circle cx="500" cy="130" r="24" fill="#ffffff" fill-opacity="0.9"/>
  <circle cx="620" cy="95" r="24" fill="#ffffff" fill-opacity="0.9"/>
  <circle cx="600" cy="240" r="24" fill="#ffffff" fill-opacity="0.9"/>
  <circle cx="710" cy="180" r="24" fill="#ffffff" fill-opacity="0.9"/>
</svg>
