<?xml version="1.0" encoding="UTF-8" standalone="no"?>
<svg width="100%" height="100%" xmlns="http://www.w3.org/2000/svg">
  <defs>
    <pattern id="cloud-pattern" x="0" y="0" width="100" height="100" patternUnits="userSpaceOnUse">
      <!-- Cloud 1 -->
      <path d="M10,40 Q15,30 25,35 Q30,25 40,30 Q50,20 60,30 Q70,25 75,35 Q85,30 90,40 Q95,50 85,55 Q90,65 80,70 Q70,75 60,70 Q50,80 40,70 Q30,75 20,70 Q10,65 15,55 Q5,50 10,40" 
            stroke="#0D9488" stroke-width="1" fill="none" />
      
      <!-- Cloud 2 (smaller) -->
      <path d="M60,10 Q65,5 70,8 Q75,3 80,8 Q85,5 90,10 Q92,15 87,18 Q90,22 85,25 Q80,27 75,25 Q70,30 65,25 Q60,27 55,25 Q50,22 53,18 Q48,15 60,10" 
            stroke="#0D9488" stroke-width="1" fill="none" />
      
      <!-- Server Icon -->
      <rect x="30" y="45" width="15" height="20" stroke="#0D9488" stroke-width="1" fill="none" />
      <line x1="33" y1="50" x2="42" y2="50" stroke="#0D9488" stroke-width="1" />
      <line x1="33" y1="55" x2="42" y2="55" stroke="#0D9488" stroke-width="1" />
      <line x1="33" y1="60" x2="42" y2="60" stroke="#0D9488" stroke-width="1" />
      
      <!-- Connection Lines -->
      <line x1="45" y1="55" x2="60" y2="55" stroke="#0D9488" stroke-width="1" stroke-dasharray="2,2" />
      <line x1="60" y1="55" x2="60" y2="40" stroke="#0D9488" stroke-width="1" stroke-dasharray="2,2" />
      <line x1="60" y1="55" x2="60" y2="70" stroke="#0D9488" stroke-width="1" stroke-dasharray="2,2" />
      
      <!-- Small Cloud Icons -->
      <path d="M15,15 Q17,12 20,14 Q22,11 25,14 Q27,12 30,15 Q31,18 28,19 Q30,21 27,23 Q25,24 22,23 Q20,25 18,23 Q16,24 14,23 Q12,21 13,19 Q10,18 15,15" 
            stroke="#0D9488" stroke-width="1" fill="none" />
      
      <path d="M75,85 Q77,82 80,84 Q82,81 85,84 Q87,82 90,85 Q91,88 88,89 Q90,91 87,93 Q85,94 82,93 Q80,95 78,93 Q76,94 74,93 Q72,91 73,89 Q70,88 75,85" 
            stroke="#0D9488" stroke-width="1" fill="none" />
    </pattern>
  </defs>
  <rect width="100%" height="100%" fill="url(#cloud-pattern)" />
</svg>