<?xml version="1.0" encoding="UTF-8" standalone="no"?>
<svg width="100%" height="100%" xmlns="http://www.w3.org/2000/svg">
  <defs>
    <pattern id="data-flow-pattern" x="0" y="0" width="100" height="100" patternUnits="userSpaceOnUse">
      <!-- Database Icons -->
      <ellipse cx="20" cy="15" rx="10" ry="5" stroke="#8B5CF6" stroke-width="1" fill="none" />
      <line x1="10" y1="15" x2="10" y2="25" stroke="#8B5CF6" stroke-width="1" />
      <line x1="30" y1="15" x2="30" y2="25" stroke="#8B5CF6" stroke-width="1" />
      <ellipse cx="20" cy="25" rx="10" ry="5" stroke="#8B5CF6" stroke-width="1" fill="none" />
      
      <ellipse cx="80" cy="75" rx="10" ry="5" stroke="#8B5CF6" stroke-width="1" fill="none" />
      <line x1="70" y1="75" x2="70" y2="85" stroke="#8B5CF6" stroke-width="1" />
      <line x1="90" y1="75" x2="90" y2="85" stroke="#8B5CF6" stroke-width="1" />
      <ellipse cx="80" cy="85" rx="10" ry="5" stroke="#8B5CF6" stroke-width="1" fill="none" />
      
      <!-- Data Flow Arrows -->
      <path d="M30,20 L50,20 L50,40" stroke="#8B5CF6" stroke-width="1" fill="none" />
      <polygon points="47,38 50,45 53,38" stroke="#8B5CF6" stroke-width="1" fill="#8B5CF6" />
      
      <path d="M55,55 L55,75 L70,75" stroke="#8B5CF6" stroke-width="1" fill="none" />
      <polygon points="68,72 75,75 68,78" stroke="#8B5CF6" stroke-width="1" fill="#8B5CF6" />
      
      <path d="M80,70 L80,55 L65,55" stroke="#8B5CF6" stroke-width="1" fill="none" />
      <polygon points="67,52 60,55 67,58" stroke="#8B5CF6" stroke-width="1" fill="#8B5CF6" />
      
      <path d="M45,55 L25,55 L25,30" stroke="#8B5CF6" stroke-width="1" fill="none" />
      <polygon points="22,32 25,25 28,32" stroke="#8B5CF6" stroke-width="1" fill="#8B5CF6" />
      
      <!-- Processing Node -->
      <rect x="45" y="45" width="20" height="20" stroke="#8B5CF6" stroke-width="1" fill="none" />
      <line x1="50" y1="50" x2="60" y2="60" stroke="#8B5CF6" stroke-width="1" />
      <line x1="50" y1="60" x2="60" y2="50" stroke="#8B5CF6" stroke-width="1" />
      
      <!-- Data Points -->
      <circle cx="20" cy="20" r="2" fill="#8B5CF6" />
      <circle cx="50" cy="20" r="2" fill="#8B5CF6" />
      <circle cx="50" cy="45" r="2" fill="#8B5CF6" />
      <circle cx="55" cy="55" r="2" fill="#8B5CF6" />
      <circle cx="55" cy="75" r="2" fill="#8B5CF6" />
      <circle cx="80" cy="75" r="2" fill="#8B5CF6" />
      <circle cx="80" cy="55" r="2" fill="#8B5CF6" />
      <circle cx="45" cy="55" r="2" fill="#8B5CF6" />
      <circle cx="25" cy="55" r="2" fill="#8B5CF6" />
      <circle cx="25" cy="25" r="2" fill="#8B5CF6" />
      
      <!-- Small Chart -->
      <line x1="10" y1="95" x2="40" y2="95" stroke="#8B5CF6" stroke-width="1" />
      <line x1="10" y1="95" x2="10" y2="75" stroke="#8B5CF6" stroke-width="1" />
      <polyline points="10,90 15,85 20,88 25,80 30,83 35,75" stroke="#8B5CF6" stroke-width="1" fill="none" />
    </pattern>
  </defs>
  <rect width="100%" height="100%" fill="url(#data-flow-pattern)" />
</svg>